<?xml version="1.0" encoding="utf-8"?>
<svg height="1360" width="800" xmlns="http://www.w3.org/2000/svg" xml:space="preserve">
    <g>
    <path id="frt_1" title="head" fill="#CCCCCC" stroke="#1b87f7" d="m417.54439,53.33527c-1.666,-32 -36.334,-51 -55.334,-51c-30.833,0 -50.167,31.5 -53.167,44.5c-1.915,8.295 -2.833,23.5 -2.5,28.167s1,12.333 0.667,16.167c2.04,7.695 6.667,23 6.667,33c0.667,5.167 1.167,12.5 3.333,18.833c3,4 22.5,23.333 44.167,23.333s36.5,-8.667 45.708,-23c2.625,-5.625 5,-15.25 4.75,-18.625c-0.708,-5.125 4.708,-28.042 5.709,-32.708c0.667,-7.333 1.666,-6.667 0,-38.667z"/>
        <path id="frt_2" title="right eye" fill="#CCCCCC" stroke="#1b87f7" d="m339.71039,85.58527c8.561,0 15.5,-4.197 15.5,-9.375s-6.939,-9.375 -15.5,-9.375c-9.75,0 -15.5,4.197 -15.5,9.375s6.939,9.375 15.5,9.375z"/>
        <path id="frt_3" title="left eye" fill="#CCCCCC" stroke="#1b87f7" d="m387.71039,85.58527c8.561,0 15.5,-4.197 15.5,-9.375s-5.5,-9.375 -15.5,-9.375c-8.561,0 -15.5,4.197 -15.5,9.375s6.939,9.375 15.5,9.375z"/>
        <path id="frt_4" title="right ear" fill="#CCCCCC" stroke="#1b87f7" d="m299.04339,89.33527c-4,4 -1.833,17 -0.833,20.667s5.833,14.667 7.167,15.833s5.167,4.833 8.5,-1.667c0,-10 -4.627,-25.305 -6.667,-33c-1,-1.833 -4.167,-5.833 -8.167,-1.833z"/>
        <path id="frt_5" title="left ear" fill="#CCCCCC" stroke="#1b87f7" d="m411.83539,124.71027c3.75,6.375 8.875,3.25 10,-1.75s7.625,-7.875 6.75,-23.625s-8.041,-11.667 -11.041,-7.333c-1.001,4.666 -6.417,27.583 -5.709,32.708z"/>
        <path id="frt_6" title="nose" fill="#CCCCCC" stroke="#1b87f7" d="m354.58539,88.58527c-0.375,3.125 -5,6.375 -5.625,13.125c-0.438,4.731 6.25,7.5 10.25,6.5c5,2.625 6.75,0.625 9.875,-0.625c5.75,0.875 8,-3.25 8,-7.75s-4.375,-6.75 -4.875,-12.25s-3.375,-7.625 -3.125,-13.5s-2.375,-9.875 -6.086,-9.875c-5.21,0 -6.289,7.875 -5.914,10.625s-2.125,10.625 -2.5,13.75z"/>
        <path id="frt_7" title="lips" fill="#CCCCCC" stroke="#1b87f7" d="m373.46039,116.58527c-2.256,-2.723 -6.231,-1.652 -7.875,-0.75c-0.882,0.484 -3.5,0.875 -5.125,-0.375s-6.125,-0.125 -7.375,1.625s-11.75,5.125 -12.625,8.125s8.625,3.25 11,4.125s4.5,3.75 13.125,3.75s10.966,-2.787 13.25,-3.25s8.125,-1.125 8.5,-3.5s-9.25,-5.375 -12.875,-9.75z"/>
        <path id="frt_8" title="neck" fill="#CCCCCC" stroke="#1b87f7" d="m306.87739,227.50227c15.667,-0.833 41.167,-2.166 45.333,3.667s15.834,6 19.667,0s38.028,-6.245 50.833,-4.333c4.95,0.739 9.833,0.81 14.438,0.363c10.976,-1.066 20.373,-5.078 25.342,-10.017c-8.889,0.081 -18.524,-5.195 -31.03,-10.721c-16.125,-7.126 -24.625,-15.876 -25.25,-18.626s0.125,-34.5 0.875,-44.5c-9.208,14.333 -24.041,23 -45.708,23s-41.167,-19.333 -44.167,-23.333c2.167,6.333 1.5,29.833 0.75,45.333c-8.5,15.25 -40,24 -48,27.5c2.042,1.655 10.695,6.598 20.857,9.508c5.186,1.485 10.766,2.44 16.06,2.159z"/>
        <path id="frt_9" title="chest" fill="#CCCCCC" stroke="#1b87f7" d="m485.71039,278.33527c-2.018,-20.749 -37.75,-48.25 -48.562,-51.137c-4.605,0.447 -9.488,0.376 -14.438,-0.363c-12.805,-1.911 -47,-1.667 -50.833,4.333s-15.5,5.833 -19.667,0s-29.667,-4.5 -45.333,-3.667c-5.294,0.281 -10.873,-0.674 -16.059,-2.159c-8.004,3.48 -46.033,26.426 -52.127,58.308c-0.459,2.402 -0.744,4.852 -0.814,7.351c-1,35.667 0.003,72.11 -0.165,85.722c0.383,-0.096 9.666,25.111 12.166,30.778s5.082,17.834 8.582,24.584c8.25,7.75 46.75,25.25 73.25,18.25s36.5,-6.244 65,0.128s52.668,-2.794 73.084,-27.211c1.25,-3.25 4.75,-11.75 5.333,-15s2.667,-6.999 4.084,-9.749s7.455,-21.675 8.005,-21.176c0.672,-13.342 -0.339,-86.991 -1.506,-98.992z"/>
        <path id="frt_10" title="stomach" fill="#CCCCCC" stroke="#1b87f7" d="m396.71039,450.46327c-28.5,-6.372 -38.5,-7.128 -65,-0.128s-65,-10.5 -73.25,-18.25c3.5,6.75 2,12 3.75,17.75s5,21.334 0.5,41.501s-1.667,35.666 -0.5,40.166c0.785,3.029 2.326,5.001 1.419,8.813c11.581,11.52 30.415,34.52 100.498,34.52s86.417,-20.498 98.75,-33.499c-1.666,-4.5 -0.501,-12 2.499,-21.167s-3.499,-44.667 -3.833,-52.833s2.501,-21.5 2.751,-27.584s4.25,-13.25 5.5,-16.5c-20.416,24.417 -44.584,33.583 -73.084,27.211z"/>
        <path id="frt_11" title="waist" fill="#CCCCCC" stroke="#1b87f7" d="m364.12739,574.83527c-70.083,0 -88.917,-23 -100.498,-34.52c-0.44,1.852 -1.458,4.137 -3.419,7.188c-2.708,4.214 -5.009,15.491 -6.673,27.332c10.34,9.027 56.21,47.939 84.084,82.636c8.255,-3.802 35.957,-5.104 49.606,-0.453c28.214,-33.03 74.964,-71.046 85.649,-79.515c-1,-13.666 -8.334,-31.667 -10,-36.167c-12.332,13.001 -28.666,33.499 -98.749,33.499z"/>
        <path id="frt_12" title="groin" fill="#CCCCCC" stroke="#1b87f7" d="m337.62239,657.47127c7.636,9.505 13.921,18.693 17.755,26.864c1,-2.167 2.75,-2.833 6.833,-3.167s5.75,0.834 6.917,1.584c3.8,-7.69 10.229,-16.519 18.101,-25.734c-13.65,-4.652 -41.351,-3.349 -49.606,0.453z"/>
        <path id="frt_13" title="right shoulder" fill="#CCCCCC" stroke="#1b87f7" d="m238.69039,283.65127c6.094,-31.882 44.123,-54.828 52.127,-58.308c-10.162,-2.91 -18.816,-7.853 -20.857,-9.508c-8,3.5 -15.5,2 -26.75,4.25s-41.5,13.25 -53.5,37.75s-9.5,57 -9.25,65.75c0.034,1.202 0.012,2.258 -0.058,3.222c12.866,-15.389 43.708,-19.127 58.288,-43.156z"/>
        <path id="frt_14" title="left shoulder" fill="#CCCCCC" stroke="#1b87f7" d="m485.71039,278.33527c13.5,30.001 46.022,30.211 58.595,48.439c-0.768,-3.438 -1.004,-7.947 -0.345,-14.439c1.931,-19.007 -4.875,-52.125 -17.875,-68.5s-53.125,-26.75 -63.595,-26.654c-4.969,4.939 -14.366,8.951 -25.342,10.017c10.812,2.887 46.544,30.388 48.562,51.137z"/>
        <path id="frt_15" title="right arm" fill="#CCCCCC" stroke="#1b87f7" d="m237.87739,291.00227c0.07,-2.499 0.354,-4.949 0.814,-7.351c-14.58,24.029 -45.423,27.768 -58.288,43.156c-0.437,6.049 -2.914,8.093 -7.442,14.778c-5.251,7.75 -15.251,39.25 -18.751,51.25c-0.507,1.738 -0.896,3.229 -1.221,4.551c-1.413,17.735 10.718,25.876 24.421,31.618c11.394,4.774 24.501,8.306 33.45,1.543c0.711,-1.544 1.634,-3.368 2.85,-5.712c3.5,-6.75 23.363,-47.953 24.001,-48.111c0.168,-13.612 -0.834,-50.055 0.166,-85.722z"/>
        <path id="frt_16" title="left arm" fill="#CCCCCC" stroke="#1b87f7" d="m548.78339,429.00427c14.284,-5.985 25.869,-14.57 23.177,-33.919c-1.625,-11.25 -17.875,-51.25 -22,-57.25c-2.265,-3.294 -4.53,-6.027 -5.655,-11.061c-12.573,-18.228 -45.095,-18.438 -58.595,-48.439c1.167,12.001 2.178,85.65 1.506,98.992c0.108,0.098 20.827,42.675 23.494,48.175c8.512,13.114 24.509,9.186 38.073,3.502z"/>
        <path id="frt_17" title="right elbow" fill="#CCCCCC" stroke="#1b87f7" d="m177.41039,429.00427c-13.704,-5.742 -25.834,-13.883 -24.421,-31.618c-1.917,7.803 -1.51,9.506 -8.779,18.699c-5.907,7.47 -15.794,29.063 -22.538,48.927c15.882,-28.244 68.495,4.695 75.547,19.871c6.154,-16.332 11.13,-43.69 11.49,-47.172c0.245,-2.366 0.814,-4.26 2.15,-7.163c-8.947,6.762 -22.055,3.23 -33.449,-1.544z"/>
        <path id="frt_18" title="left elbow" fill="#CCCCCC" stroke="#1b87f7" d="m605.21039,468.58527c-2.028,-7.858 -4.954,-16.438 -9.03,-24.074c-4.97,-9.31 -16.414,-30.066 -17.72,-32.176c-3.25,-5.25 -5.336,-9.194 -6.5,-17.25c2.692,19.349 -8.893,27.934 -23.177,33.919c-13.564,5.684 -29.562,9.612 -38.073,-3.502c2.667,5.5 7,11.333 7,17.333c0,1.363 1.692,13.781 4.385,25.354c2.187,9.396 5.372,18.235 6.115,20.146c-1.5,-13 62.5,-57 77,-19.75z"/>
        <path id="frt_19" title="right forearm" fill="#CCCCCC" stroke="#1b87f7" d="m121.67239,465.01227c-2.96,8.722 -5.318,17.111 -6.462,23.823c-2.028,11.896 -8.779,39.212 -16.707,62.487c-1.735,5.094 -3.563,9.992 -5.337,14.495c1.722,9.015 32.508,23.476 42.632,18.606c1.457,-2.714 2.764,-5.01 3.745,-6.587c4.667,-7.5 11.917,-19.251 24.917,-35.251s25.5,-39.75 32,-55.75c0.255,-0.629 0.508,-1.285 0.76,-1.953c-7.052,-15.175 -59.665,-48.114 -75.548,-19.87z"/>
        <path id="frt_20" title="left forearm" fill="#CCCCCC" stroke="#1b87f7" d="m632.04339,564.39627c-2.89,-7.644 -5.897,-16.096 -8.083,-21.561c-4,-10 -12.75,-51 -18.75,-74.25c-14.5,-37.25 -78.5,6.75 -77,19.75c7,18 35.75,60.25 40.375,65.875s16.49,23.007 19.5,28.25c6.539,10.154 45.792,-8.458 43.958,-18.064z"/>
        <path id="frt_21" title="right wrist" fill="#CCCCCC" stroke="#1b87f7" d="m93.16639,565.81727c-5.112,12.975 -9.774,22.651 -10.456,24.143c-0.886,1.939 -1.456,3.337 -2.977,4.62c9.057,0.416 28.988,8.686 43.015,19.44c2.127,-7.809 8.37,-20.88 13.05,-29.598c-10.124,4.871 -40.91,-9.59 -42.632,-18.605z"/>
        <path id="frt_22" title="left wrist" fill="#CCCCCC" stroke="#1b87f7" d="m647.96039,594.58527c-8.5,-4 -5.75,-8.25 -9.5,-15c-1.7,-3.061 -4.019,-8.847 -6.417,-15.189c1.834,9.606 -37.419,28.219 -43.958,18.064c1.544,2.689 5.188,10.48 8.506,17.668c3.15,6.824 6.007,13.104 6.494,13.957c14.875,-11.916 36.458,-20.084 44.875,-19.5z"/>
        <path id="frt_23" title="right hand" fill="#CCCCCC" stroke="#1b87f7" d="m122.04339,617.50227c0.096,-0.975 0.344,-2.156 0.705,-3.481c-14.027,-10.755 -33.958,-19.024 -43.015,-19.44c-1.911,1.612 -5.326,3.042 -12.773,5.13c-1.854,0.52 -3.833,1.291 -5.874,2.231c-12.688,5.84 -27.892,18.435 -31.876,21.019c-4.625,3 -7.75,8.375 -11.875,10.5s-4.125,8.625 0,10.5s9.625,0.125 13,-1.5s9.042,-8.457 15.5,-10.5c3.788,-1.198 7.625,-1.5 7.625,0.125s-8.5,22.375 -9.125,25.5s-3.875,13.875 -5.875,21.125s-5.5,21.25 -6.75,29.25s0.875,11.75 5.125,12.625s7.875,-7.625 8.646,-10.625s2.854,-12.75 3.979,-15.5s6.625,-18.75 8,-22s2.375,-8.625 4.375,-7.75s-0.375,5.875 -1.75,9.75s-7.125,24.749 -7.875,28.624s-5,19.75 -5.25,22.5s-1.875,8.75 2.75,10.5s7.75,-1.875 9.5,-5.625s5.375,-17.625 7.375,-26.125s5.75,-19.5 7.125,-24s2.125,-8 3.875,-7.875s1.5,2.5 0.75,4.75s-6.125,20.625 -7.125,25.625s-4.25,16.125 -5.375,20.375s-1.75,9.25 2.5,10.75s6.875,-1.5 8.75,-4.75s7.875,-21.5 9.369,-27.125s4.756,-18.5 6.131,-22.375s2.5,-5.625 3.625,-5.5s0.25,2.625 -1.125,7s-5.375,18.5 -7.125,25s-2.25,9.625 0,12s7.083,-0.541 8.25,-2.541s3,-11 5.667,-16.333c1.676,-3.352 3.669,-11.246 6.53,-19.381c1.691,-4.808 4.336,-9.699 5.636,-13.786c0.352,-1.106 0.67,-2.172 0.973,-3.219c2.707,-9.367 3.628,-16.586 6.027,-25.281c2.667,-9.667 0.167,-11.667 1,-20.167z"/>
        <path id="frt_24" title="left hand" fill="#CCCCCC" stroke="#1b87f7" d="m701.46039,624.58527c-2.75,-3.75 -17.5,-11.5 -21.75,-14.5c-2.125,-1.5 -7.938,-4.375 -14.281,-7.375s-13.219,-6.125 -17.469,-8.125c-8.417,-0.584 -30,7.584 -44.875,19.5c1,1.75 -0.875,7.125 0.125,16.25s4.125,23.25 6.375,32.125s7,18.375 8.5,22.875s9.403,29.364 12.625,32c2.75,2.25 7.5,0.75 8.25,-2.75s-1.625,-10.875 -2.5,-14.125s-5.625,-19.25 -6.5,-21.75s-2,-5.125 -0.25,-5.125s2.125,2.75 3.25,5.625s5.875,19.5 6.875,24.125s4.5,17 6.25,21.75s5,10 9,9.75s4.875,-4.75 5.125,-8.375s-5.875,-23.5 -6.375,-27.625s-5.375,-19.25 -6.125,-21.25s-1.375,-5 0.625,-5.125s2.875,5.625 3.75,8.625s9.75,31.875 10.25,35.5s2.625,14.5 6,17.75c2.744,2.643 5.625,3.875 8.625,0.875s2.25,-10 0.875,-15.25s-4.625,-21.125 -5.5,-25s-6.375,-20.875 -7.25,-24s-2.125,-5.375 -1.125,-5.75s2.25,1.125 3.5,5.25s6.625,20.5 8.375,25.5s1.5,11.625 4.125,17.375s7,7.625 10.625,7.125s4.277,-7.391 4.375,-10.125s-4.75,-20.5 -6.25,-27.375s-5.25,-16.625 -6.5,-23s-7.375,-23.375 -8.625,-26s-0.625,-4.75 2.5,-3.875s9.25,2.625 13,7.625s10.875,6.75 13.375,7s8.5,0.375 9.25,-6.375s-7.5,-10 -10.25,-13.75z"/>
        <path id="frt_25" title="right thigh" fill="#CCCCCC" stroke="#1b87f7" d="m253.53739,574.83527c-2.021,14.389 -3.102,29.611 -2.827,34c0.5,8 -6.5,46 -11.5,70c-3.981,19.107 -12.131,56.915 -14.375,92.478c-0.575,9.105 0.172,18.063 0.375,26.522c0.845,35.062 9.541,55.489 16.139,69.427c35.654,13.2 53.799,56.767 88.484,34.358c2.478,-11.204 8.03,-39.965 9.627,-52.285c1.75,-13.5 10.083,-66.333 11.815,-88.167s1.269,-38.833 0.435,-43.166s-0.167,-12.667 -0.417,-21.334s3.083,-10.166 4.083,-12.333c-3.834,-8.171 -10.12,-17.359 -17.755,-26.864c-27.873,-34.697 -73.744,-73.609 -84.084,-82.636z"/>
        <path id="frt_26" title="left thigh" fill="#CCCCCC" stroke="#1b87f7" d="m387.22839,657.01827c-7.872,9.216 -14.301,18.044 -18.101,25.734c1.167,0.75 3.083,5.083 4.333,8.083s1,20.75 -0.25,31.5s1.5,59.75 3.75,71s8.417,55.334 10.084,67.001s5.166,31.5 7.166,39.833c36.334,25.833 52.479,-20.023 89.334,-33.168c5.667,-10 13.999,-27.333 15.999,-52.333c0.874,-10.926 1.603,-27.168 0.824,-43.078c-1.002,-20.493 -3.844,-40.436 -5.157,-47.754c-2.333,-13 -14.834,-82.834 -17,-92.667s-4.333,-40 -5.333,-53.666c-10.686,8.469 -57.436,46.484 -85.649,79.515z"/>
        <path id="frt_27" title="right knee" fill="#CCCCCC" stroke="#1b87f7" d="m241.34939,867.26227c1.212,2.56 2.353,4.901 3.361,7.073c6.5,14 6,37.5 6.5,61c0.078,3.657 0.262,7.679 0.348,11.921c10.591,44.449 51.024,21.223 68.904,3.938c0.325,-1.35 0.929,-2.658 1.373,-3.483c0.875,-1.625 2.125,-10.625 3.375,-16.625s2,-18.5 4,-26.75c0.175,-0.721 0.386,-1.643 0.623,-2.715c-34.685,22.407 -52.83,-21.159 -88.484,-34.359z"/>
        <path id="frt_28" title="left knee" fill="#CCCCCC" stroke="#1b87f7" d="m394.21039,900.16927c2,8.333 4.333,14.167 4.333,24s4,22.167 5.167,25c17.417,18.167 61,46.833 69.25,-8.834c0,-11.5 3.25,-39.334 3.584,-50.334s1.333,-13 7,-23c-36.855,13.145 -53,59.001 -89.334,33.168z"/>
        <path id="frt_29" title="right leg" fill="#CCCCCC" stroke="#1b87f7" d="m251.55839,947.25627c0.085,4.202 0.072,8.622 -0.239,13.122c-1.393,20.15 -4.799,41.913 -4.109,52.957c1,16 4.5,62 7.5,83s6.875,83 7.125,87.5c0.06,1.082 0.008,2.26 -0.107,3.478c6.992,-11.484 36.463,-9.869 44.754,-6.101c-1.079,-3.858 -2.297,-10.522 -2.438,-15.043c-0.167,-5.333 7.5,-47.167 8.333,-58.333s3.667,-29.5 4.333,-33.333s5.75,-17.168 9.5,-25.918s3.5,-20 2.5,-27.25s-3.75,-45.75 -4.5,-51.375s-2.25,-13.125 -3.5,-15.125c-0.615,-0.984 -0.563,-2.333 -0.248,-3.642c-17.88,17.286 -58.313,40.512 -68.904,-3.937z"/>
        <path id="frt_30" title="left leg" fill="#CCCCCC" stroke="#1b87f7" d="m403.71039,949.16927c1.167,2.833 -1.25,16.416 -4.25,33.916s-4.083,48.751 -3.083,56.751s9.667,28.833 11.833,35s0.667,8.833 2,20.833s7.167,47.334 9,59s1.5,21 -0.667,27.167c6.667,-4.501 42.667,-7.001 46.167,8.499c-0.75,-4.25 -1.75,-10 -1,-22.25s5,-60.25 8.25,-87.75s6.75,-82 4.5,-96.5s-3.5,-32 -3.5,-43.5c-8.25,55.667 -51.833,27.001 -69.25,8.834z"/>
        <path id="frt_31" title="right ankle" fill="#CCCCCC" stroke="#1b87f7" d="m261.72839,1187.31327c-0.363,3.847 -1.388,8.108 -1.768,11.147c-0.5,4 2.125,8.625 1.375,15.875c-0.034,0.332 -0.091,0.67 -0.146,1.008c12.665,-4.423 40.242,8.668 48.998,21.075c1.177,-7.814 1.063,-15.23 -0.478,-19.082c-1.667,-4.166 -2.167,-7.167 -0.833,-12.5s-0.667,-18.667 -1.833,-21.834c-0.178,-0.482 -0.368,-1.097 -0.562,-1.79c-8.29,-3.769 -37.761,-5.384 -44.753,6.101z"/>
        <path id="frt_32" title="left ankle" fill="#CCCCCC" stroke="#1b87f7" d="m418.54339,1181.83627c-2.167,6.167 -3.166,21 -2.666,22.667s0.833,9.333 -1,13.499s-1.667,13.334 -0.667,21.5c6,-13.583 37,-29.917 50,-23.667c-2,-5.5 -2.25,-5.75 -1,-9.25s2.25,-12 1.5,-16.25c-3.5,-15.5 -39.5,-13 -46.167,-8.499z"/>
        <path id="frt_33" title="right foot" fill="#CCCCCC" stroke="#1b87f7" d="m261.18939,1215.34327c-1.15,7.047 -6.68,15.393 -10.854,23.742c-4.375,8.75 -13,19.375 -21,28.25c-2.286,2.536 -4.111,5.777 -5.548,9.185c-3.593,8.519 -4.755,18.083 -4.577,20.315c0.25,3.125 3.125,5.875 6.125,5.5c0,1.125 1,2.875 4.25,2.5c0.25,2 0,6.25 8.25,5c4,4.875 7.875,4.625 10.75,1.75c5.292,6.314 10.383,6.492 15.75,5.809c4.375,-0.558 11.125,-7.809 12.25,-10.559s2.25,-3.875 5.875,-6.75c1.972,-1.563 3.795,-4.086 5.156,-8.824c0.683,-2.376 1.247,-5.519 1.657,-8.232c0.275,-1.824 0.481,-3.456 0.604,-4.525c0.667,-5.833 0.667,-10.834 4.5,-21.334c8.667,-3.667 14,-10.333 15.5,-18.833c0.113,-0.642 0.215,-1.28 0.311,-1.918c-8.757,-12.408 -36.333,-25.499 -48.999,-21.076z"/>
        <path id="frt_34" title="left foot" fill="#CCCCCC" stroke="#1b87f7" d="m502.37639,1276.50227c-1.167,-4.167 -9.666,-14.833 -16.333,-21.833s-7.833,-11.333 -12.5,-18.667s-7.333,-14.667 -9.333,-20.167c-13,-6.25 -44,10.084 -50,23.667c1,8.166 12,15 15,16.5s3,4.167 3.833,7s2.834,10.667 3.834,21s6.25,15.749 8.666,17.666s2.834,3 3.667,4.667s3.417,6.083 11.167,9.75s14.999,-1.167 16.749,-4.75c4.5,4.5 11.084,0.416 12.25,-2.084c4.916,1.416 7.834,-3.25 7.917,-5.166c1.583,0.334 3.584,-1.082 4.25,-2.582c0.833,0.334 2.5,0.666 5,-3.334s-3,-17.5 -4.167,-21.667z"/>
    </g>
</svg>