<?xml version="1.0" encoding="utf-8"?>
<svg height="1360" version="1.1" width="800" xmlns="http://www.w3.org/2000/svg" xml:space="preserve">
    <g>
    <path id="bck_1" title="back head" fill="#CCCCCC" stroke="#1b87f7" d="m413.21308,138.34197c3.058,-18.88778 9.442,-65.75809 10.527,-83.30101c1.333,-21.55165 -29,-55.04096 -61.333,-55.04096c-27.334,0 -58.5,31.83111 -58,52.38903c0.19,7.83344 2,32.82583 2.333,36.14124c0.239,2.37639 4.332,31.84702 7.459,49.38298c10.208,20.91105 88.819,20.731 99.014,0.42873z"/>
        <path id="bck_2" title="nape" fill="#CCCCCC" stroke="#1b87f7" d="m460.24008,209.88636c-28,-9.44986 -48.999,-27.18874 -49.999,-29.3443s0.166,-30.50514 1.5,-34.31791c0.248,-0.70924 0.773,-3.56508 1.472,-7.88218c-10.194,20.30228 -88.806,20.48133 -99.013,-0.42972c1.235,6.92526 2.32,11.98939 2.957,12.78715c1.555,1.94767 2.93,28.2143 0.5,31.33375c-7.805,10.01984 -31.475,20.68226 -49.208,27.35486c21.708,-5.96734 173.866,-3.26169 191.791,0.49836z"/>
        <path id="bck_3" title="back" fill="#CCCCCC" stroke="#1b87f7" d="m501.40708,334.22661c2.836,-16.61186 6.265,-36.77388 4.098,-48.45291c-0.126,-0.67641 -0.267,-1.32895 -0.431,-1.94568c-3,-11.27319 -7.667,-51.72555 -44.834,-73.94068c-17.925,-3.76005 -170.083,-6.46569 -191.792,-0.49736c-39.458,21.38652 -44.542,68.38714 -45.542,74.10679s0.5,26.11145 2.25,36.55604s8.25,29.42686 4.625,66.02468c1.125,0 1.5,3.48153 1.875,6.09267s4.25,16.66159 9.25,22.87861s9.25,24.86805 13.25,32.32847c4.468,5.47793 41.373,10.58285 83.746,11.42438c9.657,0.19198 19.599,-1.72385 29.504,-1.76663c9.978,-0.04377 19.919,1.78354 29.499,1.50402c39.579,-1.15686 72.98,-6.31151 77.196,-11.40946c2.613,-5.67787 6.414,-14.55975 7.473,-18.07112c1.5,-4.97361 2.666,-9.11862 4.833,-12.60014s7.833,-17.98756 8.666,-20.97173s2.167,-9.3673 3.334,-9.44986c-1,-15.33662 0,-34.23634 3,-51.8101z"/>
        <path id="bck_4" title="back waist" fill="#CCCCCC" stroke="#1b87f7" d="m396.90608,458.53703c-9.58,0.27952 -19.521,-1.54779 -29.499,-1.50402c-9.906,0.04277 -19.847,1.95861 -29.504,1.76663c-42.373,-0.84153 -79.277,-5.94645 -83.746,-11.42438c4,7.46042 6.5,18.89972 8.5,37.55076s-2.25,31.83111 -3.25,37.55076s-0.227,23.75396 1.25,27.85222c1.412,3.91821 3.607,8.99328 -0.422,15.72855c6.278,-9.13155 30.556,-16.56909 56.643,-16.56909c29.53,0 31.03,10.22475 51.53,10.22475c19,0 26,-9.989 51.526,-10.11234c25.239,-0.12235 43.853,7.15205 48.38,16.50542c-0.532,-1.27225 -0.915,-2.15855 -1.072,-2.59622c-0.834,-2.32069 -1.166,-6.13445 -0.333,-8.1239s2.667,-12.76527 2.833,-18.89972s-3.667,-29.84166 -4.667,-34.64915s1.667,-28.34958 2.334,-33.15707s3,-14.58959 4.333,-16.74416c0.392,-0.63364 1.273,-2.44304 2.361,-4.80749c-4.217,5.09696 -37.618,10.25161 -77.197,11.40847z"/>
        <path id="bck_5" title="buttock" fill="#CCCCCC" stroke="#1b87f7" d="m419.93308,549.60185c-25.526,0.12335 -32.526,10.11234 -51.526,10.11234c-20.5,0 -22,-10.22475 -51.53,-10.22475c-26.087,0 -50.365,7.43754 -56.643,16.56909c-0.185,0.30936 -0.366,0.61673 -0.578,0.93305c-6,8.9525 -12,51.47687 -11.5,63.66221s-2.5,23.87333 -4,32.32847c0,18.89972 7.324,24.93072 15.316,36.94597c20.695,31.10695 58.17,53.97561 92.435,20.25055c2.75,-2.85983 6.75,-8.82816 7.75,-11.56364s2,-3.23285 4.375,-3.23285s3.75,1.11906 4.25,2.85983s3.792,8.45514 7.292,11.27418c37.774,39.69239 74.878,12.8916 94.414,-18.30686c8.533,-13.62869 14.134,-14.8512 14.134,-38.22717c-1.558,-8.39247 -3.389,-17.99154 -4.048,-21.55264c-1.167,-6.29957 -0.5,-24.20457 -2.666,-42.44181c-1.622,-13.65952 -6.051,-25.45892 -8.521,-31.49688c-0.206,-0.50233 -0.397,-0.96488 -0.573,-1.38565c-4.528,-9.35138 -23.141,-16.62578 -48.381,-16.50343z"/>
        <path id="bck_6" title="back left shoulder" fill="#CCCCCC" stroke="#1b87f7" d="m222.90708,283.49579c1,-5.71965 6.083,-52.71927 45.542,-74.10679c-8.126,3.05778 -15.006,5.27899 -18.542,6.21701c-8.263,2.19137 -41.894,9.35835 -53.5,19.39708c-17.25,14.92083 -26,34.81527 -27.5,62.41881c-0.721,13.26064 0,25.69666 0,34.31791c9.833,-24.12201 34.167,-26.02889 54,-48.24402z"/>
        <path id="bck_7" title="back right shoulder" fill="#CCCCCC" stroke="#1b87f7" d="m505.07408,283.82703c0.164,0.61673 0.305,1.26927 0.431,1.94568c16.05,16.98587 38.94,30.87816 53.412,43.64641c-0.086,-0.13727 -0.175,-0.28051 -0.26,-0.4148c0.25,-20.14312 4.75,-50.48214 -12.25,-78.08568s-58.167,-31.58243 -86.167,-41.03229c37.167,22.21513 41.834,62.66749 44.834,73.94068z"/>
        <path id="bck_8" title="back left arm" fill="#CCCCCC" stroke="#1b87f7" d="m225.15708,320.05183c-1.75,-10.44458 -3.25,-30.83638 -2.25,-36.55604c-19.833,22.21513 -44.167,24.12201 -54,48.24402c-6.833,10.6107 -18.25,33.57187 -20,43.76777s-4.5,19.89444 -7.25,27.60354c-3.98,34.34377 10.693,40.53492 26.143,46.18495c16.538,6.04791 29.232,0.63563 38.288,-15.05114c1.1,-2.15954 2.2,-4.28825 3.152,-6.1822c3.5,-6.96305 16.417,-34.27613 17.292,-37.13596s2.125,-4.84927 3.25,-4.84927c3.625,-36.59881 -2.875,-55.58109 -4.625,-66.02567z"/>
        <path id="bck_9" title="back right arm" fill="#CCCCCC" stroke="#1b87f7" d="m560.51408,449.29606c14.466,-5.29093 29.127,-11.05833 27.667,-39.96694c-2.005,-7.54298 -4.833,-12.94034 -8.024,-28.59925c-3.706,-18.18551 -14.002,-39.76401 -21.24,-51.31075c-14.472,-12.76825 -37.362,-26.66054 -53.412,-43.64641c2.167,11.68003 -1.262,31.84205 -4.098,48.45291c-3,17.57375 -4,36.47347 -2.999,51.80811c1.167,-0.08157 2.749,2.9026 3.999,5.63808c1.086,2.37739 15.768,34.80533 21.069,46.02977c9.117,12.99903 21.78,17.17487 37.038,11.59448z"/>
        <path id="bck_10" title="back left elbow" fill="#CCCCCC" stroke="#1b87f7" d="m167.80008,449.29606c-15.45,-5.65002 -30.124,-11.84117 -26.143,-46.18495c-2.75,7.7091 -1.75,15.16951 -6.5,23.37597s-0.75,6.46569 -9.75,19.89444c-4.221,6.29858 -8.992,20.0347 -13.178,35.28478c-1.258,4.58169 -2.463,9.30165 -3.584,13.99574c3.399,-5.90368 6.601,-22.48967 50.438,-10.94194c10.714,2.82203 31.865,11.11403 26.897,27.4036c2.671,-7.75286 4.745,-15.14862 6.308,-21.50291c2.547,-10.35506 3.739,-17.94081 3.953,-19.78602c0.5,-4.31013 0.833,-7.2943 1.5,-9.28374s2.167,-9.7811 2.333,-13.09751c0.122,-2.41419 3.069,-8.42927 6.014,-14.2096c-9.056,15.68776 -21.75,21.10004 -38.288,15.05213z"/>
        <path id="bck_11" title="back right elbow" fill="#CCCCCC" stroke="#1b87f7" d="m569.23108,484.72011c39.135,-10.3093 46.681,1.80343 50.268,8.72073c-0.215,-1.36973 -0.413,-2.64099 -0.592,-3.7889c-2.75,-17.65632 -17.75,-46.75194 -19.5,-49.48742s-8.25,-16.41291 -10.25,-26.60882c-0.298,-1.51994 -0.625,-2.90459 -0.976,-4.22657c1.46,28.90861 -13.201,34.67601 -27.667,39.96694c-15.259,5.58039 -27.922,1.40455 -37.038,-11.59448c0.798,1.69003 1.386,2.90459 1.681,3.45765c2.25,4.22757 2.25,4.72493 2.177,7.7091s2.823,14.17479 4.073,19.39708c1.179,4.92387 0.139,15.82105 7.558,38.72453c2.556,-12.16844 21.21,-19.88449 30.266,-22.26984z"/>
        <path id="bck_12" title="back left forearm" fill="#CCCCCC" stroke="#1b87f7" d="m159.08308,484.72011c-43.837,-11.54773 -47.038,5.03827 -50.438,10.94194c-3.104,12.99505 -5.568,25.80607 -6.738,35.02217c-2.207,17.37481 -8.379,42.37118 -11.756,55.76611c-0.875,5.98922 6.182,9.60902 17.564,14.39661c11.004,4.62844 23.67,4.02266 26.295,0.23078c10.117,-16.97493 26.772,-37.32695 39.896,-61.19232c4.95,-9.00124 8.926,-18.62915 12.073,-27.7617c4.969,-16.28957 -16.182,-24.58157 -26.896,-27.4036z"/>
        <path id="bck_13" title="back right forearm" fill="#CCCCCC" stroke="#1b87f7" d="m620.59808,600.84694c8.857,-3.72523 15.074,-6.74819 16.994,-10.72609c-1.959,-5.78829 -4.01,-12.72747 -5.436,-20.14511c-3.039,-15.81111 -9.573,-56.83543 -12.658,-76.53491c-3.587,-6.91829 -11.133,-19.03003 -50.268,-8.72073c-9.057,2.38534 -27.71,10.1014 -30.267,22.26984c0.45,1.38963 0.928,2.81805 1.442,4.2972c9,25.86277 30,54.95839 45.5,79.0804c2.965,4.61352 5.481,8.81125 7.626,12.62203c6.01,1.90489 18.322,1.53486 27.067,-2.14263z"/>
        <path id="bck_14" title="back left wrist" fill="#CCCCCC" stroke="#1b87f7" d="m107.71608,600.84694c-11.382,-4.7876 -18.439,-8.40739 -17.564,-14.39661c-1.215,4.81843 -2.068,8.13583 -2.244,9.05694c-0.667,3.48153 -4.164,10.16009 -6.167,18.23624c-0.375,1.68307 -2.811,3.52828 -5.5,4.47625c3.667,-0.74604 44.577,18.26807 45.167,20.3918c-1,-3.97889 -1.25,-7.95778 7,-26.8575c1.483,-3.39797 3.387,-6.95609 5.604,-10.67635c-2.626,3.79188 -15.292,4.39767 -26.296,-0.23078z"/>
        <path id="bck_15" title="back right wrist" fill="#CCCCCC" stroke="#1b87f7" d="m648.40708,617.47372c-3.5,-0.49736 -4,-8.20646 -5.25,-12.18535c-0.701,-2.23415 -3.058,-7.75883 -5.564,-15.16752c-1.92,3.97789 -8.137,7.00085 -16.994,10.72609c-8.745,3.67848 -21.058,4.04852 -27.065,2.14363c9.067,16.11151 11.432,25.2361 12.375,28.99018c0.527,2.09787 0.644,3.55215 0.461,4.88409c8.146,-4.62745 34.231,-16.1901 43.573,-19.02406c-0.559,-0.17408 -1.077,-0.3024 -1.536,-0.36705z"/>
        <path id="bck_16" title="back left hand" fill="#CCCCCC" stroke="#1b87f7" d="m76.24008,618.21977c-3.168,1.11707 -14.167,6.96305 -17.833,8.45514s-5.833,6.46569 -10.167,8.9525s-8.333,5.96833 -9,8.78638s-5.5,4.31013 -5.5,7.2943s2,5.30485 6.879,5.96833s12.621,-7.95778 14.121,-9.44986s2.5,0.49736 1.833,2.32069s-5.667,14.92083 -6.833,19.72932c-1.167,4.80749 -3.833,16.91028 -4.5,20.88916s-3,20.88817 -3.333,23.87233s-3.333,14.92083 1.167,18.23723s7.833,-2.32168 9.833,-7.62653s1.5,-11.77055 2.667,-14.42347s4.333,-18.89972 6.333,-22.38125s2.833,1.15985 1.667,4.14401s-3.834,16.08267 -3.834,18.23823s-1.833,13.92611 -2.5,17.905s-1.333,13.92611 0,18.07112s7.167,1.65721 9,-0.49736s3.667,-11.10806 4.5,-16.41291s1,-14.09223 2.531,-19.89444s3.636,-16.2468 5.469,-19.06584s3.833,0.33224 3.333,2.48681s-2.333,9.44986 -4,16.2468s-1.5,14.42347 -3,21.2214s-3.167,12.26791 0,15.74943s6.5,0.8286 8.5,-1.6582s4.334,-13.26263 5.667,-21.71777s4.667,-21.05429 5.833,-25.03318c1.167,-3.97988 3.5,-7.79265 5.333,-7.46042c1.833,0.33124 -0.167,5.96833 -1,9.11762s-5,20.55792 -5.167,26.19501s2.5,7.79166 5.667,6.46569s4.333,-5.96833 5,-8.78737s2.667,-8.62026 3.167,-11.93666s4.167,-16.08068 6.167,-20.22668c2,-4.14401 2.833,-9.28275 6.673,-27.18774c3.84,-17.90599 1.494,-22.21612 0.494,-26.19501c-0.589,-2.12373 -41.5,-21.13784 -45.167,-20.3918z"/>
        <path id="bck_17" title="back right hand" fill="#CCCCCC" stroke="#1b87f7" d="m686.40808,642.59046c-1.445,-3.83366 -8,-7.62653 -10.333,-8.62126s-7.918,-8.04034 -12.668,-10.02978c-4.127,-1.72883 -9.761,-4.95571 -13.465,-6.09964c-9.342,2.83496 -35.428,14.39761 -43.573,19.02406c-0.222,1.61443 -0.882,3.04882 -1.795,5.22925c-1.667,3.97889 -0.666,16.08167 0.334,19.39708c1,3.3164 4.166,22.21612 5.833,25.86277s3,8.1239 3.667,10.44458s7.667,31.83111 10.167,34.15179s5.666,1.82432 7,-0.49736s0.5,-7.46042 0,-10.77582s-1.667,-9.7811 -2,-12.43403s-2.334,-10.44458 -3.334,-14.09123c-1,-3.64765 1.334,-3.64864 3,-1.49208c1.666,2.15457 3.334,8.62026 4.167,11.77055s3.5,16.08068 4.333,20.55693s2.834,17.57375 5.834,20.72404s5.666,3.31541 8.166,0.99472s1.167,-7.2943 0.834,-10.11334s-2.5,-19.06484 -2.834,-22.87861s-3.833,-14.25835 -4.666,-20.3918s2.666,-1.82432 3,-0.49736s4.166,14.75471 4.666,18.23624s3,15.58431 3.5,22.54737s3.667,12.93139 4.834,14.42347s6,2.15556 7.5,0s1.166,-5.63709 1,-9.28374s-1.5,-22.05 -1.5,-25.53153s-4.5,-19.72932 -5,-23.37597s1.333,-1.82432 2,-0.16512c0.667,1.65721 4.999,19.06484 5.833,22.71249s1.166,7.2943 1.833,11.93666s3.833,8.9525 6.333,10.27846s5.5,-1.15985 6.5,-3.81277s-1.5,-15.08695 -1.833,-23.20985s-1.5,-11.27418 -2.167,-13.92611c-0.667,-2.65292 -3,-18.07112 -3.833,-22.38125c-0.833,-4.31113 -6.666,-18.89972 -7.666,-21.71876s4.166,0.49736 5.666,2.81805s7.5,5.47097 10.5,5.30485s5.667,-1.6582 6,-5.30485s-3.833,-4.47625 -5.833,-9.7811z"/>
        <path id="bck_18" title="back left thigh" fill="#CCCCCC" stroke="#1b87f7" d="m259.47308,699.92823c-7.993,-12.01425 -15.316,-18.04625 -15.316,-36.94597c-1.5,8.45514 -8.25,42.77305 -9.75,53.71499s-3,14.42347 -7.25,46.50326s-1.25,75.59888 2.75,93.00651s12.75,36.05867 15.25,48.99006c14.239,23.09048 32.047,27.5727 48.263,28.55748c17.666,1.07331 33.441,-2.93344 40.654,-15.29485c1.667,-5.80221 6,-44.26513 8.167,-57.69388s9.5,-61.00929 10.5,-78.2518s1,-34.81428 0.167,-40.78261s-1.625,-16.20601 -1,-21.55264c-34.266,33.72506 -71.741,10.8564 -92.435,-20.25055z"/>
        <path id="bck_19" title="back right thigh" fill="#CCCCCC" stroke="#1b87f7" d="m375.57408,719.51629c0.833,5.80321 0.083,10.11234 -1.167,28.5147s3.25,72.86339 6.5,86.29214s7,37.79944 8.75,55.95312c1.093,11.33685 3.355,22.96515 5.571,32.21905c8.43,9.19819 24.089,12.20623 39.665,11.25926c15.283,-0.92907 32.867,-4.96963 46.76,-24.75963c0.889,-5.92158 1.705,-9.57122 2.004,-10.7609c0.75,-2.98417 10.75,-27.85222 13.5,-41.03229s4.25,-42.85561 5.25,-57.77644s-4.499,-53.71599 -5.833,-61.34153s-3.833,-29.50942 -5.166,-35.64388s-4.334,-21.55264 -4.834,-25.53153c-0.218,-1.72982 -1.254,-7.47136 -2.452,-13.92611c0,23.37597 -5.601,24.59848 -14.134,38.22717c-19.536,31.19846 -56.64,57.99926 -94.414,18.30686z"/>
        <path id="bck_20" title="back left knee" fill="#CCCCCC" stroke="#1b87f7" d="m293.42008,933.75456c-16.216,-0.98477 -34.024,-5.46699 -48.263,-28.55748c2.5,12.93139 3.25,32.07979 4.25,53.21763c0.655,13.84355 -0.084,29.50147 -1.164,42.22098c2.574,-20.79964 19.106,-19.035 35.64,-17.3957c16.633,1.64925 33.267,3.25473 35.69,9.82388c-1.167,-5.47097 0.667,-11.10806 3,-15.91555s3.167,-17.73888 4,-28.68082s5.833,-24.20557 7.5,-30.00778c-7.211,12.36141 -22.987,16.36815 -40.653,15.29485z"/>
        <path id="bck_21" title="back right knee" fill="#CCCCCC" stroke="#1b87f7" d="m434.89308,933.75456c-15.576,0.94598 -31.235,-2.06106 -39.665,-11.25926c1.331,5.56448 2.646,10.27051 3.679,13.53817c2.75,8.70382 2.25,34.06923 5.5,40.28624c2.566,4.90895 3.724,9.20416 3.484,15.07501c6.028,-4.65232 22.368,-6.74919 36.539,-8.15473c13.658,-1.35382 29.354,1.29015 35.854,13.97286c-1.023,-13.82564 -1.763,-29.73025 -1.628,-46.50724c0.15,-18.68784 1.655,-32.78504 2.996,-41.71069c-13.891,19.79 -31.475,23.83056 -46.759,24.75963z"/>
        <path id="bck_22" title="back left calf" fill="#CCCCCC" stroke="#1b87f7" d="m283.88308,983.23999c-16.533,-1.63831 -33.065,-3.40394 -35.64,17.3957c-0.569,6.70144 -1.232,12.58821 -1.836,16.96498c-1.75,12.68271 -5,45.75722 -2.5,59.68332s8.75,70.12791 9,91.26575c2.411,11.53679 18.52,15.35055 31.624,15.86383c13.165,0.51726 23.325,-2.32566 25.624,-16.06078c1.52,-12.1187 2.896,-24.9715 3.086,-31.38547c0.333,-11.27319 8.333,-23.87333 12.833,-37.13695s0.5,-46.4197 -1.167,-65.1543s-4.167,-36.14124 -5.333,-41.61221c-2.424,-6.56914 -19.058,-8.17463 -35.691,-9.82388z"/>
        <path id="bck_23" title="back right calf" fill="#CCCCCC" stroke="#1b87f7" d="m444.43008,983.23999c-14.171,1.40554 -30.511,3.50242 -36.539,8.15473c-0.064,1.5647 -0.222,3.23583 -0.484,5.06811c-1.25,8.70382 -7,64.90561 -7.5,84.3027s7.5,35.80999 10.5,39.78888s3.75,15.41819 4,21.6352c0.127,3.15625 1.801,16.63374 3.811,30.76476c5.639,7.69517 15.869,11.84018 25.566,11.46019c11.76,-0.46155 25.933,-3.58498 30.46,-12.55737c0.124,-3.26269 0.258,-6.34434 0.413,-9.02611c0.75,-12.93139 4.75,-46.50326 7.5,-73.60943s3,-44.51381 1,-61.92145c-0.921,-8.01249 -1.999,-18.29493 -2.872,-30.08636c-6.501,-12.6837 -22.196,-15.32767 -35.855,-13.97386z"/>
        <path id="bck_24" title="back left ankle" fill="#CCCCCC" stroke="#1b87f7" d="m284.53108,1184.41358c-13.104,-0.51427 -29.212,-4.32804 -31.624,-15.86383c0.25,21.13784 4.125,51.22819 4.25,57.81822s-1.25,26.60882 -1,28.47392s0.25,3.73021 -0.875,3.73021c6.082,14.33892 4.342,25.07893 3.644,34.22441c-0.388,5.07706 0.181,9.46279 1.315,14.10217c10.5,-13.42775 47.957,-20.04365 48.229,-7.45146c-0.177,-6.12152 -1.244,-13.43372 -2.062,-20.40075c-1.5,-12.76626 1.833,-27.18874 2.167,-31.0025s-4.5,-18.40236 -5.833,-25.36541s2.167,-19.06484 4.167,-31.16763c0.862,-5.21732 2.096,-13.97684 3.247,-23.15812c-2.301,13.73512 -12.46,16.57804 -25.625,16.06078z"/>
        <path id="bck_25" title="back right ankle" fill="#CCCCCC" stroke="#1b87f7" d="m443.78408,1184.41358c-9.697,0.38098 -19.928,-3.76403 -25.566,-11.46019c1.949,13.7023 4.214,28.02132 5.69,34.14185c3,12.43403 1,17.73888 -1.833,26.52625s-2.334,14.25735 -1.334,21.88289s0.667,17.40764 0.5,24.37069c-0.098,4.05349 -2.111,11.2523 -2.63,17.93384c5.397,-8.60534 37.767,-2.66287 48.526,8.9903c0.54,-0.48542 1.031,-0.943 1.459,-1.34984c0.771,-4.03161 1.113,-8.4432 0.792,-12.65386c-0.999,-13.0806 -1.991,-21.0334 2.987,-33.59077c-0.096,-0.07261 -0.193,-0.14523 -0.302,-0.21983c-2.166,-1.49009 -1.666,-12.59815 -1.666,-21.55065s1.25,-24.12201 2.25,-31.83111c0.793,-6.11058 1.114,-21.2781 1.587,-33.74694c-4.527,8.97339 -18.7,12.09582 -30.46,12.55737z"/>
        <path id="bck_26" title="back left heel" fill="#CCCCCC" stroke="#1b87f7" d="m260.24008,1306.89868c2.334,2.15556 12.667,9.11862 23.167,11.61736s19.167,-1.50402 23,-7.14111c1.741,-2.56041 2.21,-6.83175 2.062,-11.92771c-0.271,-12.59219 -37.729,-5.97629 -48.229,7.45146z"/>
        <path id="bck_27" title="back right heel" fill="#CCCCCC" stroke="#1b87f7" d="m418.61108,1297.8099c-0.372,4.79754 0.025,9.33049 2.463,12.24006c6.573,7.84736 13.334,10.27846 26.667,7.12818c9.396,-2.21922 15.717,-7.06651 19.396,-10.37794c-10.759,-11.65217 -43.128,-17.59564 -48.526,-8.9903z"/>
        <path id="bck_28" title="back left foot" fill="#CCCCCC" stroke="#1b87f7" d="m258.92608,1292.7965c0.699,-9.14547 2.438,-19.88549 -3.644,-34.22441c-1.125,0 -2.875,1.36774 -3.125,2.61115s-2.375,0.6217 -4,0.12434s-6.625,4.47625 -6.75,5.09795s-0.25,1.2434 -2.25,1.11906s-5.75,3.10851 -5.875,4.10323s-1.208,1.78254 -2.875,1.94767s-4.167,2.98417 -5.167,5.30585s0.833,4.80749 1.667,9.11762s6.667,9.28374 18.833,12.10278s12.167,4.64137 14.5,6.79694c-1.134,-4.63938 -1.703,-9.02412 -1.314,-14.10217z"/>
        <path id="bck_29" title="back right foot" fill="#CCCCCC" stroke="#1b87f7" d="m469.38808,1292.7965c0.321,4.20966 -0.021,8.62225 -0.792,12.65386c0.792,-0.754 1.396,-1.35083 1.812,-1.70097c2.167,-1.82432 16,-5.6361 21.5,-7.46042s7.333,-7.12818 7.666,-10.11234s0.5,-2.65292 1.834,-5.80321s-5.167,-7.46042 -6,-7.46042s-2,0 -2,-1.49208s-3.667,-4.31013 -5.167,-4.31013s-3,-0.99472 -3.5,-2.48681s-6.667,-3.81277 -8.833,-3.48153c-2.058,0.31433 -1.715,-0.56799 -3.532,-1.93573c-4.979,12.55737 -3.987,20.50918 -2.988,33.58977z"/>
    </g>
</svg>